<svg width="116" height="22" viewBox="0 0 116 22" fill="none" xmlns="http://www.w3.org/2000/svg">
<path d="M39.36 19.32C38.2 19.32 37.0667 19.1933 35.96 18.94C34.8667 18.6733 33.9667 18.32 33.26 17.88L34.78 14.44C35.4467 14.8267 36.1933 15.14 37.02 15.38C37.8467 15.6067 38.64 15.72 39.4 15.72C40.0533 15.72 40.52 15.66 40.8 15.54C41.08 15.4067 41.22 15.2133 41.22 14.96C41.22 14.6667 41.0333 14.4467 40.66 14.3C40.3 14.1533 39.7 13.9933 38.86 13.82C37.78 13.5933 36.88 13.3533 36.16 13.1C35.44 12.8333 34.8133 12.4067 34.28 11.82C33.7467 11.22 33.48 10.4133 33.48 9.4C33.48 8.52 33.7267 7.72 34.22 7C34.7133 6.28 35.4467 5.71333 36.42 5.3C37.4067 4.88667 38.6 4.68 40 4.68C40.96 4.68 41.9 4.78667 42.82 5C43.7533 5.2 44.5733 5.5 45.28 5.9L43.86 9.32C42.4867 8.62667 41.1867 8.28 39.96 8.28C38.7467 8.28 38.14 8.57333 38.14 9.16C38.14 9.44 38.32 9.65333 38.68 9.8C39.04 9.93333 39.6333 10.08 40.46 10.24C41.5267 10.44 42.4267 10.6733 43.16 10.94C43.8933 11.1933 44.5267 11.6133 45.06 12.2C45.6067 12.7867 45.88 13.5867 45.88 14.6C45.88 15.48 45.6333 16.28 45.14 17C44.6467 17.7067 43.9067 18.2733 42.92 18.7C41.9467 19.1133 40.76 19.32 39.36 19.32ZM54.0245 5C55.3179 5 56.4445 5.21333 57.4045 5.64C58.3645 6.06667 59.1045 6.68 59.6245 7.48C60.1445 8.28 60.4045 9.21333 60.4045 10.28C60.4045 11.3467 60.1445 12.28 59.6245 13.08C59.1045 13.88 58.3645 14.4933 57.4045 14.92C56.4445 15.3467 55.3179 15.56 54.0245 15.56H52.0045V19H47.2845V5H54.0245ZM53.7245 11.92C54.3645 11.92 54.8445 11.78 55.1645 11.5C55.4845 11.2067 55.6445 10.8 55.6445 10.28C55.6445 9.76 55.4845 9.36 55.1645 9.08C54.8445 8.78667 54.3645 8.64 53.7245 8.64H52.0045V11.92H53.7245ZM73.5925 15.44V19H61.9525V5H73.3325V8.56H66.5925V10.2H72.5125V13.6H66.5925V15.44H73.5925ZM87.0495 15.44V19H75.4095V5H86.7895V8.56H80.0495V10.2H85.9695V13.6H80.0495V15.44H87.0495ZM88.8666 5H95.7666C97.3266 5 98.6999 5.28667 99.8866 5.86C101.087 6.42 102.013 7.22667 102.667 8.28C103.333 9.33333 103.667 10.5733 103.667 12C103.667 13.4267 103.333 14.6667 102.667 15.72C102.013 16.7733 101.087 17.5867 99.8866 18.16C98.6999 18.72 97.3266 19 95.7666 19H88.8666V5ZM95.5666 15.32C96.5799 15.32 97.3866 15.0333 97.9866 14.46C98.5999 13.8733 98.9066 13.0533 98.9066 12C98.9066 10.9467 98.5999 10.1333 97.9866 9.56C97.3866 8.97333 96.5799 8.68 95.5666 8.68H93.5866V15.32H95.5666Z" fill="#DA1E37"/>
<rect y="17" width="31" height="1" fill="#DA1E37"/>
<rect x="12" y="12" width="19" height="1" fill="#DA1E37"/>
<rect x="19" y="7.00002" width="12" height="1" fill="#DA1E37"/>
<path d="M27 10H29V11H27V10Z" fill="#DA1E37"/>
<rect x="27" y="15" width="2" height="1" fill="#DA1E37"/>
</svg>
